<svg viewBox="0 0 512 512" xmlns="http://www.w3.org/2000/svg">
  <!-- 太阳 (Sun) - 画面的左上角, 经典的卡通太阳形象, 明亮的黄色圆形 -->
  <circle cx="100" cy="80" r="50" fill="#FFD700"/>

  <!-- 倾斜平面 (Slope) - 画面的中心偏右部分, 巨大的棕色直角三角形, 从左下方向右上角 -->
  <path d="M140 512 L 512 512 L 512 150 Z" fill="#A0522D"/>

  <!-- 大树 (Big Tree) - 画面的左下角, 粗壮、棕色树干, 茂盛、圆润的绿色树冠, 部分枝叶与太阳齐平 -->
  <!-- 树干 -->
  <rect x="70" y="200" width="30" height="312" fill="#8B4513"/>
  <!-- 树冠 (使用多个圆形模拟圆润茂盛的效果) -->
  <circle cx="85" cy="150" r="70" fill="#32CD32"/>
  <circle cx="120" cy="180" r="40" fill="#32CD32"/>
  <circle cx="50" cy="180" r="40" fill="#32CD32"/>

  <!-- 小屋 (Cabin) - 画面的右下角, 卡通风格, 浅橙红色主体, 深红色屋顶和烟囱, 深红色矩形门, 两扇窗户 -->
  <!-- 主体 -->
  <rect x="380" y="380" width="100" height="100" rx="8" ry="8" fill="#FFA07A"/>
  <!-- 屋顶 -->
  <path d="M 370 380 L 490 380 L 430 320 Z" fill="#DC143C"/>
  <!-- 烟囱 -->
  <rect x="450" y="300" width="20" height="40" fill="#DC143C"/>
  <!-- 门 -->
  <rect x="410" y="430" width="40" height="50" rx="5" ry="5" fill="#DC143C"/>
  <!-- 窗户1 (屋顶下方的半圆形窗户, 简化为圆形) -->
  <circle cx="430" cy="395" r="15" fill="#ADD8E6"/>
  <!-- 窗户2 (右侧方形窗户) -->
  <rect x="445" y="420" width="25" height="25" fill="#ADD8E6"/>

  <!-- 汽车 (Car) - 小巧的两厢轿车, 鲜艳的红色, 圆润, 正行驶在棕色斜坡的斜面上，仿佛正在爬坡, 朝向右上方 -->
  <g transform="translate(350 400) rotate(-40)">
    <!-- 车身 -->
    <rect x="-50" y="-25" width="100" height="50" rx="15" ry="15" fill="#FF0000"/>
    <!-- 车窗 -->
    <rect x="-35" y="-20" width="30" height="20" rx="5" ry="5" fill="#ADD8E6"/>
    <rect x="15" y="-20" width="30" height="20" rx="5" ry="5" fill="#ADD8E6"/>
    <!-- 车轮 -->
    <circle cx="-25" cy="30" r="18" fill="#444444"/>
    <circle cx="25" cy="30" r="18" fill="#444444"/>
  </g>

  <!-- 第一只鸟 (Bird 1) - 画面的右上角, 稍大, 棕、橙红、蓝灰, 栖息或即将飞离 (简化为飞行姿态) -->
  <path d="M440 90 Q455 60 470 90 Q455 75 440 90 Z M470 90 Q485 60 500 90 Q485 75 470 90 Z" fill="#A52A2A"/>

  <!-- 第二只鸟 (Bird 2) - 位于第一只鸟下方，斜坡的右侧边缘上方，小屋上方, 较小, 浅蓝色或青绿色, 飞翔，翅膀展开 -->
  <path d="M340 160 Q350 135 360 160 Q350 145 340 160 Z M360 160 Q370 135 380 160 Q370 145 360 160 Z" fill="#87CEEB"/>
</svg>